HIERARCHY
ROOT Hips
{
	OFFSET -3.958830 18.904000 13.208200
	CHANNELS 6 Xposition Yposition Zposition Zrotation Yrotation Xrotation 
	JOINT LHipJoint
	{
		OFFSET 0.000000 0.000000 0.000000
		CHANNELS 3 Zrotation Yrotation Xrotation
		JOINT LeftUpLeg
		{
			OFFSET 1.800000 -1.400000 0.085000
			CHANNELS 3 Zrotation Yrotation Xrotation
			JOINT LeftLeg
			{
				OFFSET 2.215000 -6.000000 0.000000
				CHANNELS 3 Zrotation Yrotation Xrotation
				JOINT LeftFoot
				{
					OFFSET 2.500000 -6.900000 0.000000
					CHANNELS 3 Zrotation Yrotation Xrotation
					JOINT LeftToeBase
					{
						OFFSET 0.200000 -0.500000 1.950000
						CHANNELS 3 Zrotation Yrotation Xrotation
						End Site
						{
							OFFSET 0.000000 0.000000 0.000000
						}
					}
				}
			}
		}
	}
	JOINT RHipJoint
	{
		OFFSET 0.000000 0.000000 0.000000
		CHANNELS 3 Zrotation Yrotation Xrotation
		JOINT RightUpLeg
		{
			OFFSET -1.800000 -1.400000 0.085000
			CHANNELS 3 Zrotation Yrotation Xrotation
			JOINT RightLeg
			{
				OFFSET -2.215000 -6.000000 0.000000
				CHANNELS 3 Zrotation Yrotation Xrotation
				JOINT RightFoot
				{
					OFFSET -2.500000 -6.900000 0.000000
					CHANNELS 3 Zrotation Yrotation Xrotation
					JOINT RightToeBase
					{
						OFFSET -0.200000 -0.500000 1.950000
						CHANNELS 3 Zrotation Yrotation Xrotation
						End Site
						{
							OFFSET 0.000000 0.000000 0.000000
						}
					}
				}
			}
		}
	}
	JOINT LowerBack
	{
		OFFSET 0.000000 0.000000 0.000000
		CHANNELS 3 Zrotation Yrotation Xrotation
		JOINT Spine
		{
			OFFSET -0.087000 1.940000 -0.288900
			CHANNELS 3 Zrotation Yrotation Xrotation
			JOINT Spine1
			{
				OFFSET 0.000000 1.950000 0.060000
				CHANNELS 3 Zrotation Yrotation Xrotation
				JOINT Neck
				{
					OFFSET 0.000000 0.000000 0.000000
					CHANNELS 3 Zrotation Yrotation Xrotation
					JOINT Neck1
					{
						OFFSET 0.000000 1.600000 0.340000
						CHANNELS 3 Zrotation Yrotation Xrotation
						JOINT Head
						{
							OFFSET 0.000000 1.667000 -0.240000
							CHANNELS 3 Zrotation Yrotation Xrotation
							End Site
							{
								OFFSET 0.000000 0.000000 0.000000
							}
						}
					}
				}
				JOINT LeftShoulder
				{
					OFFSET 0.000000 0.000000 0.000000
					CHANNELS 3 Zrotation Yrotation Xrotation
					JOINT LeftArm
					{
						OFFSET 2.700000 1.550000 -0.730000
						CHANNELS 3 Zrotation Yrotation Xrotation
						JOINT LeftForeArm
						{
							OFFSET 5.450000 0.000000 0.000000
							CHANNELS 3 Zrotation Yrotation Xrotation
							JOINT LeftHand
							{
								OFFSET 3.450000 0.000000 0.000000
								CHANNELS 3 Zrotation Yrotation Xrotation
								JOINT LeftHandIndex1
								{
									OFFSET 0.750000 0.000000 0.000000
									CHANNELS 3 Zrotation Yrotation Xrotation
									End Site
									{
										OFFSET 0.000000 0.000000 0.000000
									}
								}
							}
						}
					}
				}
				JOINT RightShoulder
				{
					OFFSET 0.000000 0.000000 0.000000
					CHANNELS 3 Zrotation Yrotation Xrotation
					JOINT RightArm
					{
						OFFSET -2.700000 1.550000 -0.730000
						CHANNELS 3 Zrotation Yrotation Xrotation
						JOINT RightForeArm
						{
							OFFSET -5.450000 0.000000 0.000000
							CHANNELS 3 Zrotation Yrotation Xrotation
							JOINT RightHand
							{
								OFFSET -3.450000 0.000000 0.000000
								CHANNELS 3 Zrotation Yrotation Xrotation
								JOINT RightHandIndex1
								{
									OFFSET -0.750000 0.000000 0.000000
									CHANNELS 3 Zrotation Yrotation Xrotation
									End Site
									{
										OFFSET 0.000000 0.000000 0.000000
									}
								}
							}
						}
					}
				}
			}
		}
	}
}
MOTION
Frames: 4
Frame Time: 0.016667
-0.387750 16.319880 -0.411200 2.505365 -31.766676 -17.323957 -15.098831 14.591386 2.467184 20.388790 -1.019175 10.840224 -3.502998 10.440991 26.649191 0.661953 7.739573 1.976976 -0.042970 -0.116140 -0.003360 18.301312 -11.060931 1.569772 -21.725980 -3.703528 -22.549322 -3.110994 -10.022184 48.237508 -0.607303 -7.343199 1.646475 -0.010740 0.189060 0.021320 -3.394800 -4.107667 -6.517743 7.750233 -9.066726 6.919824 -9.127616 -9.003799 16.590261 -1.153850 -4.028030 -12.723217 -17.077953 14.070137 53.209871 -0.319110 10.246980 7.187700 11.816713 3.306003 4.753847 -3.108866 -0.524928 3.610056 -25.190438 -59.539882 15.255870 -3.663252 3.740892 0.154130 0.137060 -0.054420 0.016970 -9.994029 -5.224307 8.307187 35.745924 -13.109595 -2.872654 99.723091 41.700632 37.959744 1.852132 -2.342027 -0.177020 0.120160 0.104680 -0.086240 
-0.393810 16.251670 -0.376350 3.066353 -32.025077 -18.081541 -15.118698 14.682900 2.470390 20.347087 -0.986763 10.753667 -3.529858 10.711466 27.896266 0.690914 7.904448 1.924584 -0.014220 -0.067920 0.001430 18.292875 -11.042978 1.463631 -21.485973 -3.526149 -22.280874 -4.956824 -9.064805 49.144795 -0.624629 -7.378790 1.641450 0.024520 0.201330 0.027300 -3.323654 -4.356947 -6.467040 7.453783 -9.754538 7.517373 -8.141848 -10.058956 15.870651 -1.865329 -4.868457 -12.032012 -19.013938 15.502933 51.357959 -0.795490 10.965460 6.315890 9.596345 3.484835 4.185426 -2.397950 -0.063965 3.469748 -26.743794 -51.387099 13.825373 -3.655673 3.758675 0.128710 0.151660 -0.058940 0.032750 -6.252879 -4.677297 7.272855 34.700866 -10.691054 -2.472910 98.400710 45.939085 41.672144 1.941422 -2.336651 -0.168190 0.129970 0.091750 -0.074540 
-0.381920 16.188540 -0.359070 3.170938 -31.909736 -18.311015 -15.122755 14.734320 2.453344 20.372790 -1.149560 9.981659 -3.431512 11.017850 30.007357 0.673558 8.122171 1.834246 0.034820 -0.006020 0.031640 18.292038 -11.030542 1.446761 -20.960918 -3.175669 -22.537012 -6.481436 -8.340136 50.632714 -0.679721 -7.529811 1.586185 0.077780 0.197860 0.043990 -3.302452 -4.483759 -6.486283 7.531227 -10.056249 8.732005 -7.040487 -10.689204 14.857030 -2.410668 -5.332623 -10.816233 -19.608896 15.731152 49.058354 -1.561950 11.168780 3.962840 6.420016 3.623006 2.967097 -1.514663 -1.200683 3.036777 -23.775273 -43.165049 10.465826 -3.665285 3.709800 0.129600 0.160670 -0.049670 0.040200 -1.879871 -4.320626 6.196614 33.667124 -8.985588 -2.588698 94.819320 49.146187 42.437882 2.008524 -2.284461 -0.166020 0.146310 0.081790 -0.080670 
-0.356840 16.139270 -0.373360 2.754089 -31.819018 -17.889298 -15.120596 14.758299 2.445550 20.865614 -1.388123 8.805576 -3.462343 11.374724 31.775313 0.694617 8.297832 1.756960 0.041930 0.005140 0.038450 18.292124 -10.961316 1.535495 -19.518370 -2.405781 -23.979785 -8.194927 -7.357133 52.477280 -0.725623 -7.680589 1.540798 0.082400 0.188560 0.049260 -3.299997 -4.569039 -6.592409 7.910917 -10.258711 10.222184 -5.539891 -11.191214 13.861407 -2.662051 -5.613371 -10.383123 -20.102407 15.882351 48.402505 -2.139150 11.306240 3.650790 3.250714 2.629278 2.643045 -1.187393 -0.899620 2.510233 -23.981180 -36.935426 8.986860 -3.663582 3.666254 0.119510 0.161150 -0.046990 0.038200 1.997437 -2.904226 5.547931 33.841267 -7.086781 -3.270485 88.898609 51.599438 40.585649 2.115486 -2.199649 -0.155610 0.137220 0.076940 -0.079140 
